<?xml version="1.0" encoding="utf-8"?>
<!-- Generator: Adobe Illustrator 15.1.0, SVG Export Plug-In . SVG Version: 6.00 Build 0)  -->
<!DOCTYPE svg PUBLIC "-//W3C//DTD SVG 1.1//EN" "http://www.w3.org/Graphics/SVG/1.1/DTD/svg11.dtd">
<svg version="1.1"
	 id="svg4485" sodipodi:docname="floorplan.svg" inkscape:version="0.92.1 r15371" xmlns:sodipodi="http://sodipodi.sourceforge.net/DTD/sodipodi-0.dtd" xmlns:inkscape="http://www.inkscape.org/namespaces/inkscape" xmlns:svg="http://www.w3.org/2000/svg" xmlns:cc="http://creativecommons.org/ns#" xmlns:rdf="http://www.w3.org/1999/02/22-rdf-syntax-ns#" xmlns:dc="http://purl.org/dc/elements/1.1/"
	 xmlns="http://www.w3.org/2000/svg" xmlns:xlink="http://www.w3.org/1999/xlink" x="0px" y="0px" width="210px" height="172px"
	 viewBox="0 0 210 172" enable-background="new 0 0 210 172" xml:space="preserve">
<path id="rect4639_1_" fill="#F0F0F0" d="M123.988,164.497v-10.999h10v-15.654h12.008l0.316,17.969l59.676,0.155v-18.551l-1-2.629
	l-34.737,0.296l0.181-7.002h34.557l-0.399-81.747l1.039-5.517l0.296-9.324H205v-5.919l0.922-0.367l0.066-18.458l-1-1.756
	l-71.359-0.5l-0.002,42.662H149.7l0.065,69.671h-16.14l0.003-112.333H86.988v25l-1.027,0.307l0.247,15.866l-1.637,0.125v0.768h-22
	l0.095,5.357l-1.692-0.487l0.432,105.914l1.375,0.094l-0.033,7.062L123.988,164.497L123.988,164.497z"/>
<sodipodi:namedview  id="namedview4487" borderopacity="1" inkscape:snap-others="true" inkscape:snap-smooth-nodes="false" inkscape:snap-midpoints="true" inkscape:snap-center="false" inkscape:snap-text-baseline="true" inkscape:object-nodes="true" inkscape:snap-intersection-paths="true" bordercolor="#666666" pagecolor="#ffffff" objecttolerance="10" gridtolerance="10000" guidetolerance="10000" inkscape:pageopacity="0" inkscape:pageshadow="2" inkscape:window-width="1920" inkscape:window-height="1018" showgrid="true" inkscape:zoom="3.7057633" inkscape:cx="76.773405" inkscape:cy="113.15016" inkscape:window-x="-8" inkscape:window-y="-8" inkscape:window-maximized="1" inkscape:current-layer="svg4485" inkscape:snap-nodes="true" inkscape:snap-grids="true" inkscape:snap-object-midpoints="true" inkscape:snap-global="false" inkscape:snap-bbox="false" inkscape:object-paths="true">
	<inkscape:grid  type="xygrid" id="grid4496" empspacing="1" spacingx="1" spacingy="1"></inkscape:grid>
</sodipodi:namedview>
<path id="rect4639_3_" fill="#F0F0F0" d="M154.336,64.43"/>
<g id="layer1" transform="translate(0,10)" inkscape:label="Black" inkscape:groupmode="layer">
</g>
<path id="path4528" inkscape:connector-curvature="0" fill="none" stroke="#B9B9B9" d="M84.988,2.494h122v4h-2v-2h-118v25h-2V2.494z
	"/>
<path id="path4568" inkscape:connector-curvature="0" fill="none" stroke="#B9B9B9" d="M133.629,4.994v111.833"/>
<path id="path4578" sodipodi:nodetypes="cc" inkscape:connector-curvature="0" fill="none" stroke="#B9B9B9" d="M205.922,31.495
	v9.324"/>
<path id="path4582_1_" sodipodi:nodetypes="ccccccccc" inkscape:connector-curvature="0" fill="none" stroke="#B9B9B9" d="
	M170.432,128.082h34.559v6.706h-33.001v0.706h-1.558V47.155"/>
<path id="path4584" inkscape:connector-curvature="0" fill="none" stroke="#B9B9B9" d="M205.988,6.494v19.175"/>
<path id="path4588" inkscape:connector-curvature="0" fill="none" stroke="#B9B9B9" d="M196.988,164.994h8v-6h2v8h-10V164.994z"/>
<path id="path4590" inkscape:connector-curvature="0" fill="none" stroke="#B9B9B9" d="M149.768,46.75v69.744"/>
<path id="path4596" inkscape:connector-curvature="0" fill="none" stroke="#B9B9B9" d="M133.988,137.02v0.824h12.008v18.124"/>
<path id="path4604" inkscape:connector-curvature="0" fill="none" stroke="#B9B9B9" d="M145.469,155.968h60.52"/>
<path id="path4606_1_" inkscape:connector-curvature="0" fill="none" stroke="#B9B9B9" d="M181.988,110.494"/>
<path id="path4610" inkscape:connector-curvature="0" fill="none" stroke="#B9B9B9" d="M133.188,116.826h17.062"/>
<path id="path4616_2_" inkscape:connector-curvature="0" fill="none" stroke="#B9B9B9" d="M186.988,106.494"/>
<path id="path4616_1_" inkscape:connector-curvature="0" fill="none" stroke="#B9B9B9" d="M186.988,98.494"/>
<path id="path4618" inkscape:connector-curvature="0" fill="none" stroke="#B9B9B9" d="M85.961,29.801v15.693H84.87"/>
<path id="path4620" inkscape:connector-curvature="0" fill="none" stroke="#B9B9B9" d="M149.701,47.155H205"/>
<path id="path4660" sodipodi:nodetypes="cccccccc" inkscape:connector-curvature="0" fill="none" stroke="#B9B9B9" d="M84.571,44.56
	h0.5h-24.5v7.001h2V46.56h22V44.56"/>
<path id="path4670" inkscape:connector-curvature="0" fill="none" stroke="#B9B9B9" d="M60.974,51.43v106.404"/>
<path id="path4672" inkscape:connector-curvature="0" fill="none" stroke="#B9B9B9" d="M60.488,157.744h2v7h61.5v2h-63.5V157.744z"
	/>
<path id="path4722" sodipodi:nodetypes="cccc" inkscape:connector-curvature="0" fill="none" stroke="#B9B9B9" d="M123.988,166.105
	l71.984-0.106h1.016l0,0"/>
<path id="path4734" inkscape:connector-curvature="0" fill="none" stroke="#B9B9B9" d="M63.988,146.494L63.988,146.494"/>
<path id="path4756_1_" sodipodi:nodetypes="ccccc" inkscape:connector-curvature="0" fill="none" stroke="#B9B9B9" d="
	M123.988,166.105v-12.607h10v12.607"/>
<path id="path4760" sodipodi:nodetypes="cc" inkscape:connector-curvature="0" fill="none" stroke="#B9B9B9" d="M133.988,137.82
	v15.678"/>
<text transform="matrix(1 0 0 1 2.9878 162.9941)" font-family="'ArialMT'" font-size="6">Alarm:</text>
<text id="alarm_control_panel.ha_alarm" transform="matrix(1 0 0 1 27.9878 162.9941)" font-family="'ArialMT'" font-size="7">-----------</text>
<g id="camera.side_of_house" transform="matrix(0.87047864,0,0,1.1281938,-760.95359,-640.10291)" inkscape:label="camera.side_of_house" display="none">
	<path id="path4918" inkscape:connector-curvature="0" display="inline" fill="#646464" d="M895.655,714.114h-0.325
		c-0.086,0-0.168,0.009-0.249,0.021v-0.68c0-0.394-0.39-0.712-0.872-0.712h-6.262c-0.482,0-0.873,0.319-0.873,0.712v3.039
		c0,0.396,0.392,0.714,0.873,0.714h6.262c0.482,0,0.872-0.319,0.872-0.714v-0.981c0.081,0.012,0.163,0.022,0.249,0.022h0.356
		l1.7,1.076v-3.795L895.655,714.114z"/>
</g>
<g id="camera.fuse_box" transform="matrix(0.87047864,0,0,1.1281938,-632.82285,-640.29372)" inkscape:label="camera.fuse_box" display="none">
	<path id="path4918-2" inkscape:connector-curvature="0" display="inline" fill="#646464" d="M895.653,722.091h-0.323
		c-0.086,0-0.168,0.009-0.249,0.021v-0.679c0-0.396-0.39-0.713-0.873-0.713h-6.262c-0.481,0-0.873,0.318-0.873,0.713v3.037
		c0,0.396,0.392,0.714,0.873,0.714h6.262c0.482,0,0.873-0.319,0.873-0.714v-0.981c0.081,0.012,0.163,0.022,0.249,0.022h0.355
		l1.701,1.077v-3.795L895.653,722.091z"/>
</g>
<g id="camera.hallway" transform="matrix(-0.87047864,0,0,-1.1281938,956.67675,912.64963)" inkscape:label="camera.hallway" display="none">
	<path id="path4918-2-7" inkscape:connector-curvature="0" display="inline" fill="#646464" d="M895.653,714.114h-0.323
		c-0.086,0-0.168,0.009-0.249,0.021v-0.679c0-0.396-0.39-0.712-0.873-0.712h-6.262c-0.482,0-0.873,0.318-0.873,0.712v3.037
		c0,0.396,0.388,0.714,0.873,0.714h6.262c0.48,0,0.873-0.318,0.873-0.714v-0.98c0.081,0.012,0.163,0.021,0.249,0.021h0.355
		l1.701,1.078v-3.797L895.653,714.114z"/>
</g>
<g id="camera.back_garden" transform="matrix(0,0.87047864,-1.1281938,0,813.6725,-709.10718)" inkscape:label="camera.back_garden" display="none">
	<path id="path4918-2-7-1" inkscape:connector-curvature="0" display="inline" fill="#646464" d="M895.654,714.114h-0.324
		c-0.086,0-0.168,0.009-0.249,0.021v-0.68c0-0.393-0.39-0.712-0.873-0.712h-6.262c-0.481,0-0.873,0.319-0.873,0.712v3.04
		c0,0.394,0.391,0.714,0.873,0.714h6.262c0.482,0,0.873-0.32,0.873-0.714v-0.981c0.081,0.013,0.163,0.021,0.249,0.021h0.355
		l1.7,1.076v-3.794L895.654,714.114z"/>
</g>
<g id="camera.camera" transform="matrix(0.61552135,0.61552135,-0.79775349,0.79775349,168.25851,-1054.2456)" inkscape:label="camera.hair_salon">
	<path id="path4918-2-7-1-2-4" inkscape:connector-curvature="0" fill="#646464" d="M947.697,767.675l0.229,0.177
		c0.062,0.048,0.127,0.086,0.196,0.121l-0.624,0.482c-0.359,0.279-0.376,0.716-0.034,0.98l4.428,3.417
		c0.34,0.264,0.908,0.253,1.271-0.028l2.784-2.149c0.363-0.279,0.376-0.719,0.036-0.981l-4.43-3.418
		c-0.34-0.264-0.908-0.25-1.268,0.029l-0.901,0.693c-0.044-0.053-0.094-0.103-0.157-0.152l-0.251-0.192l-0.217-1.689l-3.479,2.683
		L947.697,767.675z"/>
</g>
<g id="camera.backyard" transform="matrix(-0.61552135,-0.61552135,0.79775349,-0.79775349,111.55553,1177.3777)" inkscape:label="camera.backyard" display="none">
	<path id="path4918-2-7-1-2-4-2" inkscape:connector-curvature="0" display="inline" fill="#646464" d="M895.656,714.113
		l-0.326,0.001c-0.087,0-0.167,0.008-0.251,0.021l0.002-0.681c-0.001-0.392-0.389-0.713-0.873-0.712l-6.264,0.001
		c-0.481,0-0.873,0.318-0.872,0.712l0.001,3.039c0,0.394,0.391,0.713,0.873,0.714h6.262c0.482,0.001,0.872-0.319,0.872-0.713
		l0.001-0.981c0.079,0.013,0.163,0.021,0.248,0.021h0.355l1.701,1.077l0-3.795L895.656,714.113z"/>
</g>
<g id="camera.front_door" transform="matrix(0.61552135,-0.61552135,0.79775349,0.79775349,-925.80567,82.507864)" inkscape:label="camera.front_door" display="none">
	<path id="path4918-2-7-1-2-4-2-9" inkscape:connector-curvature="0" display="inline" fill="#646464" d="M895.655,714.114h-0.324
		c-0.086,0.001-0.169,0.009-0.249,0.021l-0.001-0.679c0-0.394-0.39-0.712-0.873-0.712l-6.261-0.001
		c-0.482,0-0.873,0.319-0.873,0.712l-0.002,3.039c-0.001,0.394,0.392,0.714,0.874,0.714l6.261,0.001
		c0.482-0.001,0.873-0.32,0.873-0.714l-0.001-0.981c0.08,0.013,0.163,0.021,0.249,0.022l0.355,0.001l1.702,1.076l-0.002-3.796
		L895.655,714.114z"/>
</g>
<g id="camera.front_yard" transform="matrix(0.61552135,-0.61552135,0.79775349,0.79775349,-929.735,135.71283)" inkscape:label="camera.front_yard" display="none">
	<path id="path4918-2-7-1-2-4-2-0" inkscape:connector-curvature="0" display="inline" fill="#646464" d="M895.655,714.114h-0.324
		c-0.086,0-0.166,0.01-0.247,0.021l-0.002-0.679c0.001-0.395-0.391-0.712-0.873-0.712l-6.262-0.001
		c-0.481,0.001-0.871,0.319-0.873,0.712l-0.002,3.04c0,0.394,0.392,0.714,0.873,0.712l6.262,0.001c0.482,0,0.873-0.321,0.873-0.715
		l0.002-0.981c0.079,0.012,0.163,0.021,0.246,0.021h0.355l1.702,1.076l0-3.795L895.655,714.114z"/>
</g>
<g id="media_player.salon" transform="matrix(0.02381784,0,0,0.02381784,163.89264,71.709553)" inkscape:label="media_player.salon" display="none">
	<g id="svgg-3" display="inline">
		<path id="path0-9" inkscape:connector-curvature="0" fill="#A1A1A1" d="M0.005-0.004"/>
		<path id="path1-0" inkscape:connector-curvature="0" fill="#FFFFFF" d="M90.371,78.328l-2.378,2.338v75.523v75.523l-2.87,3.342
			l-2.87,3.342H63.064c-21.566,0-21.115-0.102-25.011,5.965c-2.05,3.219-3.689,4.717-6.313,5.904
			c-2.666,1.17-4.265,2.686-6.396,5.926c-1.518,2.418-4.06,5.166-5.658,6.15c-5.289,3.279-6.068,4.98-6.068,13.201
			c0,8.078,0.246,8.549,6.971,13.182c1.435,0.965,3.566,3.383,4.715,5.371c1.312,2.234,3.69,4.594,6.355,6.295
			s5.002,4.059,6.396,6.375c3.608,6.17,3.034,6.027,25.175,6.027c22.182,0,20.501,0.451,24.765-6.684
			c1.025-1.701,3.731-4.285,6.027-5.76c2.624-1.682,4.961-4.039,6.354-6.336c1.148-2.008,3.608-4.611,5.494-5.801
			c1.805-1.168,4.142-2.85,5.167-3.711l1.763-1.578v-69.332v-69.312l2.87-3.342l2.87-3.342h44.322h44.363l3.197,3.197l3.198,3.199
			v44.014V232l-3.198,3.199l-3.197,3.197h-19.271c-21.649,0-21.239-0.102-25.052,5.904c-1.969,3.096-3.772,4.756-6.602,6.17
			c-3.116,1.539-4.264,2.707-5.74,5.762c-1.312,2.828-2.952,4.529-6.15,6.602c-5.576,3.586-5.985,4.447-5.985,12.977
			c0,7.912,0.041,8.016,7.052,12.463c2.337,1.518,3.896,3.301,4.92,5.699c1.148,2.625,2.624,4.203,5.904,6.314
			c2.788,1.805,5.166,4.121,6.52,6.479c3.648,6.17,3.075,6.027,25.42,6.027h19.886l2.132-2.297c1.189-1.25,3.116-3.75,4.347-5.555
			c1.147-1.805,3.526-4.182,5.248-5.248c1.722-1.086,4.1-3.629,5.289-5.658s3.649-4.633,5.535-5.822
			c1.804-1.168,4.141-2.85,5.125-3.711l1.804-1.578V181.795V80.666l-2.337-2.338l-2.337-2.336h-70.152H92.667L90.371,78.328
			 M315.672,90.465c-2.05,2.42-2.091,2.604-2.091,15.889c0,15.006,0.246,15.662,6.15,19.311c1.558,0.963,4.059,3.648,5.494,5.945
			c1.681,2.604,4.059,4.982,6.313,6.293c5.617,3.301,6.889,5.658,6.889,12.875c0,7.463,0.492,8.467,5.945,11.973
			c6.313,4.039,6.026,2.234,6.026,37.639c0,35.426,0.287,33.621-6.026,37.66c-5.453,3.504-5.945,4.488-5.945,11.971
			c0,7.217-1.271,9.574-6.889,12.875c-2.255,1.291-4.633,3.689-6.313,6.293c-1.436,2.297-3.937,4.963-5.494,5.945
			c-5.904,3.65-6.15,4.307-6.15,19.354v13.488l2.337,2.584c2.993,3.361,5.289,2.48,9.144-3.607c1.763-2.748,4.182-5.188,6.724-6.746
			c2.542-1.537,4.756-3.793,6.15-6.129c1.353-2.338,3.772-4.777,6.724-6.703c2.952-1.969,5.044-4.061,5.986-6.008
			c0.902-1.988,2.87-3.957,5.74-5.801c5.576-3.568,6.027-4.469,6.027-12.711v-6.867l3.198-3.199
			c1.763-1.742,3.895-3.197,4.715-3.197c4.92,0,4.879,0.143,4.879-49.201c0-50.76,0.369-47.582-6.272-50.268
			c-5.085-2.008-6.52-4.797-6.52-12.506c0-7.912-0.451-8.834-6.027-12.381c-2.87-1.846-4.838-3.814-5.74-5.803
			c-0.942-1.947-3.034-4.039-5.986-6.006c-2.91-1.928-5.371-4.367-6.724-6.662c-1.312-2.297-3.69-4.654-6.355-6.355
			s-5.043-4.061-6.396-6.377C321.453,87.637,318.87,86.672,315.672,90.465 M265.527,140.732c-2.214,2.234-2.296,2.686-2.296,9.266
			c0,8.303,0.41,9.184,5.904,12.73c2.788,1.785,5.125,4.102,6.52,6.479c1.188,2.051,3.525,4.572,5.207,5.617
			c1.64,1.045,3.936,3.137,5.084,4.613l2.05,2.705v18.246v18.266l-2.05,2.707c-1.148,1.475-3.444,3.547-5.084,4.611
			c-1.682,1.047-4.019,3.568-5.207,5.617c-1.395,2.379-3.731,4.695-6.52,6.479c-5.494,3.525-5.904,4.428-5.904,12.73
			c0,10.066,1.6,11.604,12.178,11.604c8.323,0,8.733-0.205,12.505-6.58c1.968-3.219,5.576-6.232,7.544-6.232
			c2.952,0,4.552-3.875,4.552-10.988c0-7.914,1.106-10.127,6.847-13.49c6.068-3.525,5.945-3.094,5.945-24.723
			c0-21.607,0.123-21.178-5.945-24.703c-5.74-3.361-6.847-5.596-6.847-13.51c0-7.852-1.107-9.963-6.355-12.074
			c-2.132-0.861-3.937-2.398-5.412-4.695c-4.428-6.99-4.469-7.012-12.833-7.012C268.151,138.395,267.823,138.477,265.527,140.732"/>
		<path id="path2-7" inkscape:connector-curvature="0" fill="#A1A1A1" d="M43.999,3.174v3.178L31.821,6.576L19.604,6.803
			l-0.451,5.391c-0.574,6.602-0.369,6.377-6.929,6.93l-5.412,0.471L6.565,31.793L6.36,43.99H3.203H0.005V200v155.988h3.198h3.198
			v11.848c0,13.818,0,13.756,6.929,13.756h5.002l0.451,2.604c0.246,1.436,0.492,4.039,0.615,5.803
			c0.123,1.846,0.615,3.238,1.189,3.301c0.573,0.041,6.067,0.143,12.218,0.205l11.193,0.082v3.219v3.197h156.009h155.968v-3.178
			v-3.197l12.629-0.205l12.628-0.227l0.205-5.76l0.246-5.781l5.781-0.227l5.74-0.225l0.246-12.607l0.205-12.607h3.156h3.198V200
			V43.99h-3.198h-3.197l-0.082-11.193c-0.082-6.15-0.164-11.645-0.246-12.197c-0.041-0.574-1.436-1.088-3.28-1.211
			c-1.763-0.102-4.346-0.389-5.822-0.635l-2.583-0.43v-5.002c0-6.951,0.041-6.93-13.735-6.93h-11.891V3.193v-3.197H200.008H43.999
			V3.174 M235.269,78.328l2.337,2.338v101.129v101.129l-1.804,1.578c-0.984,0.861-3.321,2.543-5.125,3.711
			c-1.886,1.189-4.346,3.793-5.535,5.822s-3.567,4.572-5.289,5.658c-1.722,1.066-4.101,3.443-5.248,5.248
			c-1.23,1.805-3.157,4.305-4.347,5.555l-2.132,2.297H188.24c-22.345,0-21.771,0.143-25.42-6.027
			c-1.354-2.357-3.731-4.674-6.52-6.479c-3.28-2.111-4.756-3.689-5.904-6.314c-1.024-2.398-2.583-4.182-4.92-5.699
			c-7.011-4.447-7.052-4.551-7.052-12.463c0-8.529,0.409-9.391,5.985-12.977c3.198-2.072,4.839-3.773,6.15-6.602
			c1.477-3.055,2.624-4.223,5.74-5.762c2.829-1.414,4.633-3.074,6.602-6.17c3.812-6.006,3.402-5.904,25.052-5.904h19.271
			l3.197-3.197L213.62,232v-43.994v-44.014l-3.198-3.199l-3.197-3.197h-44.363h-44.322l-2.87,3.342l-2.87,3.342v69.312v69.332
			l-1.763,1.578c-1.025,0.861-3.362,2.543-5.167,3.711c-1.886,1.189-4.346,3.793-5.494,5.801c-1.394,2.297-3.73,4.654-6.354,6.336
			c-2.296,1.475-5.002,4.059-6.027,5.76c-4.264,7.135-2.583,6.684-24.765,6.684c-22.141,0-21.566,0.143-25.175-6.027
			c-1.394-2.316-3.73-4.674-6.396-6.375s-5.044-4.061-6.355-6.295c-1.148-1.988-3.28-4.406-4.715-5.371
			c-6.725-4.633-6.971-5.104-6.971-13.182c0-8.221,0.779-9.922,6.068-13.201c1.599-0.984,4.141-3.732,5.658-6.15
			c2.132-3.24,3.73-4.756,6.396-5.926c2.624-1.188,4.264-2.686,6.313-5.904c3.896-6.066,3.444-5.965,25.011-5.965h19.188l2.87-3.342
			l2.87-3.342v-75.523V80.666l2.378-2.338l2.296-2.336h70.112h70.152L235.269,78.328 M321.371,89.193
			c0.902,0.637,2.624,2.83,3.813,4.838c1.353,2.316,3.73,4.676,6.396,6.377s5.043,4.059,6.355,6.355
			c1.353,2.295,3.813,4.734,6.724,6.662c2.952,1.967,5.044,4.059,5.986,6.006c0.902,1.988,2.87,3.957,5.74,5.803
			c5.576,3.547,6.027,4.469,6.027,12.381c0,7.709,1.435,10.498,6.52,12.506c6.642,2.686,6.272-0.492,6.272,50.268
			c0,49.344,0.041,49.201-4.879,49.201c-0.82,0-2.952,1.455-4.715,3.197l-3.198,3.199v6.867c0,8.242-0.451,9.143-6.027,12.711
			c-2.87,1.844-4.838,3.812-5.74,5.801c-0.942,1.947-3.034,4.039-5.986,6.008c-2.951,1.926-5.371,4.365-6.724,6.703
			c-1.395,2.336-3.608,4.592-6.15,6.129c-2.542,1.559-4.961,3.998-6.724,6.746c-3.854,6.088-6.15,6.969-9.144,3.607l-2.337-2.584
			v-13.488c0-15.047,0.246-15.703,6.15-19.354c1.558-0.982,4.059-3.648,5.494-5.945c1.681-2.604,4.059-5.002,6.313-6.293
			c5.617-3.301,6.889-5.658,6.889-12.875c0-7.482,0.492-8.467,5.945-11.971c6.313-4.039,6.026-2.234,6.026-37.66
			c0-35.404,0.287-33.6-6.026-37.639c-5.453-3.506-5.945-4.51-5.945-11.973c0-7.217-1.271-9.574-6.889-12.875
			c-2.255-1.311-4.633-3.689-6.313-6.293c-1.436-2.297-3.937-4.982-5.494-5.945c-5.904-3.648-6.15-4.305-6.15-19.311
			C313.581,90.014,315.713,85.258,321.371,89.193 M284.511,140.199c0.861,0.984,2.583,3.342,3.731,5.207
			c1.476,2.297,3.28,3.834,5.412,4.695c5.248,2.111,6.355,4.223,6.355,12.074c0,7.914,1.106,10.148,6.847,13.51
			c6.068,3.525,5.945,3.096,5.945,24.703c0,21.629,0.123,21.197-5.945,24.723c-5.74,3.363-6.847,5.576-6.847,13.49
			c0,7.113-1.6,10.988-4.552,10.988c-1.968,0-5.576,3.014-7.544,6.232c-3.771,6.375-4.182,6.58-12.505,6.58
			c-10.578,0-12.178-1.537-12.178-11.604c0-8.303,0.41-9.205,5.904-12.75c2.788-1.764,5.125-4.08,6.52-6.459
			c1.188-2.049,3.525-4.57,5.207-5.617c1.64-1.064,3.936-3.137,5.084-4.611l2.05-2.707v-18.266v-18.246l-2.05-2.705
			c-1.148-1.477-3.444-3.568-5.084-4.613c-1.682-1.045-4.019-3.566-5.207-5.617c-1.395-2.377-3.731-4.693-6.52-6.479
			c-5.494-3.547-5.904-4.428-5.904-12.73c0-10.064,1.6-11.604,12.178-11.604C282.174,138.395,283.076,138.58,284.511,140.199"/>
	</g>
</g>
<path id="path4672_1_" inkscape:connector-curvature="0" fill="none" stroke="#B9B9B9" d="M205,137.074V93.748l0,0V41.171h2v95.903
	H205z"/>
<path id="path4672_2_" inkscape:connector-curvature="0" fill="none" stroke="#B9B9B9" d="M205,31.495v-2.533l0,0v-3.386h2v5.919
	H205z"/>
<path id="path4578_1_" sodipodi:nodetypes="cc" inkscape:connector-curvature="0" fill="none" stroke="#B9B9B9" d="M206,137.074
	v21.92"/>
<rect id="group.hallway" x="134.083" y="47.156" fill="none" width="15.25" height="69.338"/>
<rect id="group.kitchen" x="146.528" y="137.418" fill="none" width="59.281" height="18"/>
<text id="sensor.foran_temperature" transform="matrix(1 0 0 1 70.821 8.7441)" fill="#827A7C" font-family="'MyriadPro-Regular'" font-size="6">0.0c</text>
<polygon id="group.livingroom" fill="none" points="61.362,52.062 63.019,52.062 63.019,47.062 85.027,47.062 85.027,46 86.394,46 
	86.415,30 87.768,30.036 87.748,5.25 133.438,5.25 133.438,152.938 123.519,152.938 123.456,164.188 62.956,164.188 62.936,157.229 
	61.362,157.229 "/>
<text transform="matrix(1 0 0 1 79.9616 101.0742)" fill="#827A7C" font-family="'MyriadPro-Semibold'" font-size="6">Livingroom</text>
<rect id="group.bathroom" x="170.916" y="47.668" fill="none" width="33.617" height="79.833"/>
<text transform="matrix(1 0 0 1 163.4885 146.9688)" fill="#827A7C" font-family="'MyriadPro-Semibold'" font-size="6">Kitchen</text>
<text transform="matrix(-4.371139e-08 1 -1 -4.371139e-08 139.2365 71.6978)" fill="#827A7C" font-family="'MyriadPro-Semibold'" font-size="6">Hallway</text>
<text transform="matrix(1 0 0 1 174.9885 89.123)" fill="#827A7C" font-family="'MyriadPro-Semibold'" font-size="6">Bathroom</text>
<text id="sensor.badet_temperature" transform="matrix(1 0 0 1 173.2385 124.9941)" fill="#827A7C" font-family="'MyriadPro-Regular'" font-size="6">0c</text>
<text id="sensor.stua_temperature" transform="matrix(1 0 0 1 118.8635 53.7441)" fill="#827A7C" font-family="'MyriadPro-Regular'" font-size="6">00.0c</text>
<rect id="group.bedroom" x="134.083" y="4.994" fill="none" width="70.45" height="41.756"/>
<text id="sensor.soverom_temperature" transform="matrix(1 0 0 1 136.3635 10.9941)" fill="#827A7C" font-family="'MyriadPro-Regular'" font-size="6">00.0c</text>
<text transform="matrix(1 0 0 1 157.2385 25.5762)" fill="#827A7C" font-family="'MyriadPro-Semibold'" font-size="6">Bedroom</text>
</svg>
